<?xml version="1.0" encoding="iso-8859-1"?>
<!-- Generator: Adobe Illustrator 19.0.0, SVG Export Plug-In . SVG Version: 6.00 Build 0)  -->
<svg version="1.1" id="Layer_1" xmlns="http://www.w3.org/2000/svg" xmlns:xlink="http://www.w3.org/1999/xlink" x="0px" y="0px"
	 viewBox="0 0 512.002 512.002" style="enable-background:new 0 0 512.002 512.002;" xml:space="preserve">
<g>
	<rect x="157.912" y="16.749" style="fill:#FF3501;" width="196.172" height="217.149"/>
	<path style="fill:#FF3501;" d="M81.671,52.875c0,0,14.619,89.483-25.061,173.018c3.133-1.044,79.656-23.581,79.656-23.581
		L81.671,52.875z"/>
	<path style="fill:#FF3501;" d="M430.328,52.875c0,0-14.619,89.483,25.061,173.018c-3.133-1.044-79.656-23.581-79.656-23.581
		L430.328,52.875z"/>
</g>
<path style="fill:#FF7956;" d="M242.531,150.887l-0.121-0.27v-0.001L183.02,18.279C175.482,2.67,164.117-2.89,150.545,1.4
	l-24.803,17.457l-34.737,1.357c-13.573,4.288-21.17,18.902-16.88,32.475l37.856,119.8c2.206,8.012,6.437,33.286-26.579,36.959l0,0
	l-19.192,2.037c-14.234,0-25.88,11.646-25.88,25.88v248.407c0,14.234,11.646,25.88,25.88,25.88h163.909
	c14.234,0,25.88-11.646,25.88-25.88V216.698C256,182.11,243.844,153.84,242.531,150.887z"/>
<g>
	<path style="fill:#FF6243;" d="M83.512,486.114V237.707c0-14.234,11.646-25.88,25.88-25.88l19.192-2.037
		c33.016-3.673,28.785-28.947,26.579-36.959l-37.856-119.8c-4.29-13.572,3.307-28.187,16.879-32.475l41.517-13.119
		c-6.861-7.106-15.439-9.115-25.161-6.044l-59.54,18.814c-13.572,4.288-21.169,18.903-16.879,32.475l37.856,119.8
		c2.206,8.012,6.437,33.286-26.579,36.959l-19.192,2.037c-14.234,0-25.88,11.646-25.88,25.88v248.407
		c0,14.234,11.646,25.88,25.88,25.88h38.987C92.94,509.625,83.512,498.92,83.512,486.114z"/>
	<path style="fill:#FF6243;" d="M102.049,57.602l62.472-20.777c8.272-2.614,18.439-3.345,26.827,0.01l-8.327-18.557
		C175.482,2.669,164.117-2.89,150.545,1.399l-24.368,17.703l-35.172,1.111c-13.572,4.288-21.169,18.903-16.879,32.475l8.147,25.782
		C84.458,69.01,92.368,60.661,102.049,57.602z"/>
	<path style="fill:#FF6243;" d="M269.468,151.234l0.121-0.27v-0.001l59.389-132.337c7.538-15.609,18.903-21.169,32.475-16.879
		l26.298,18.367l33.243,0.447c13.572,4.288,21.169,18.903,16.879,32.475l-37.856,119.8c-2.206,8.012-6.437,33.286,26.579,36.959l0,0
		l19.192,2.037c14.234,0,25.88,11.646,25.88,25.88v248.407c0,14.234-11.646,25.88-25.88,25.88H281.88
		c-14.234,0-25.88-11.646-25.88-25.88V217.045C256,182.458,268.155,154.187,269.468,151.234z"/>
</g>
<g>
	<path style="fill:#FF5023;" d="M328.979,18.627L269.59,150.964v0.001l-0.121,0.27c-1.313,2.953-13.468,31.223-13.468,65.811
		v269.075c0,14.234,11.646,25.88,25.88,25.88h44.9c-14.234,0-25.88-11.646-25.88-25.88V217.045
		c0-34.588,12.155-62.858,13.468-65.811l0.121-0.27v-0.001l59.389-132.337c2.102-4.352,4.511-7.894,7.173-10.687l-19.596-6.192
		C347.882-2.541,336.516,3.018,328.979,18.627z"/>
	<path style="fill:#FF5023;" d="M410.004,57.951l-62.472-20.777c-8.272-2.614-18.439-3.345-26.827,0.01l8.327-18.557
		c7.538-15.609,18.903-21.168,32.475-16.879l27.259,17.957l32.281,0.857c13.572,4.288,21.169,18.903,16.879,32.475l-8.147,25.782
		C427.594,69.357,419.685,61.009,410.004,57.951z"/>
	<path style="fill:#FF5023;" d="M440.345,488.506h-9.444c-4.326,0-7.831-3.506-7.831-7.831c0-4.325,3.505-7.831,7.831-7.831h9.444
		c4.326,0,7.831,3.506,7.831,7.831C448.176,485,444.67,488.506,440.345,488.506z"/>
	<path style="fill:#FF5023;" d="M407.408,488.506h-34.981c-4.326,0-7.831-3.506-7.831-7.831c0-4.325,3.505-7.831,7.831-7.831h34.981
		c4.326,0,7.831,3.506,7.831,7.831C415.239,485,411.733,488.506,407.408,488.506z"/>
</g>
<path style="fill:#E1E3FA;" d="M151.091,1.249c-0.184,0.054-60.087,18.964-60.087,18.964c-0.924,0.292-1.818,0.636-2.685,1.02
	l33.442,88.592c2.434,6.448,9.701,9.732,16.148,7.298l38.099-14.382c6.448-2.434,9.732-9.701,7.298-16.148L151.091,1.249z"/>
<path style="fill:#C4C8F5;" d="M91.004,20.214c-0.924,0.291-1.818,0.636-2.685,1.02l13.729,36.369l62.472-20.777L151.091,1.25
	C150.907,1.305,91.004,20.214,91.004,20.214z"/>
<path style="fill:#E1E3FA;" d="M336.337,102.74l38.099,14.382c6.448,2.434,13.714-0.85,16.148-7.298l33.278-88.158
	c-0.924-0.419-1.879-0.793-2.868-1.106c0,0-59.772-18.875-59.89-18.91l-32.064,84.942C326.606,93.04,329.89,100.307,336.337,102.74z
	"/>
<path style="fill:#C4C8F5;" d="M420.994,20.562c0,0-59.772-18.875-59.89-18.91l-13.427,35.569l62.327,20.729
	c0.048,0.016,0.095,0.036,0.143,0.051l13.715-36.335C422.938,21.249,421.985,20.875,420.994,20.562z"/>
<rect x="40.329" y="278.444" style="fill:#57565C;" width="431.344" height="46.487"/>
<rect x="40.329" y="278.444" style="fill:#3E3D42;" width="43.188" height="46.487"/>
<path style="fill:#2D2D30;" d="M288.37,271.03h-64.74c-6.892,0-12.53,5.639-12.53,12.53v36.262c0,6.892,5.639,12.53,12.53,12.53
	h64.74c6.892,0,12.53-5.639,12.53-12.53V283.56C300.9,276.669,295.261,271.03,288.37,271.03z M285.237,316.689h-58.475v-29.996
	h58.475V316.689z"/>
<path style="fill:#1D1D1F;" d="M243.817,319.822v-3.133h-17.055v-29.996h17.055v-3.133c0-6.892,5.639-12.53,12.53-12.53H223.63
	c-6.892,0-12.53,5.639-12.53,12.53v36.262c0,6.892,5.639,12.53,12.53,12.53h32.718C249.456,332.352,243.817,326.713,243.817,319.822
	z"/>
<rect x="40.329" y="378.143" style="fill:#57565C;" width="431.344" height="46.487"/>
<path style="fill:#2D2D30;" d="M288.37,370.729h-64.74c-6.892,0-12.53,5.639-12.53,12.53v36.262c0,6.892,5.639,12.53,12.53,12.53
	h64.74c6.892,0,12.53-5.639,12.53-12.53v-36.262C300.9,376.368,295.261,370.729,288.37,370.729z M285.237,416.388h-58.475v-29.996
	h58.475V416.388z"/>
<rect x="40.329" y="378.143" style="fill:#3E3D42;" width="43.188" height="46.487"/>
<path style="fill:#1D1D1F;" d="M243.817,419.521v-3.133h-17.055v-29.996h17.055v-3.133c0-6.892,5.639-12.53,12.53-12.53H223.63
	c-6.892,0-12.53,5.639-12.53,12.53v36.262c0,6.892,5.639,12.53,12.53,12.53h32.718C249.456,432.051,243.817,426.413,243.817,419.521
	z"/>
<g>
</g>
<g>
</g>
<g>
</g>
<g>
</g>
<g>
</g>
<g>
</g>
<g>
</g>
<g>
</g>
<g>
</g>
<g>
</g>
<g>
</g>
<g>
</g>
<g>
</g>
<g>
</g>
<g>
</g>
</svg>
