<?xml version="1.0" encoding="iso-8859-1"?>
<!-- Generator: Adobe Illustrator 19.0.0, SVG Export Plug-In . SVG Version: 6.00 Build 0)  -->
<svg version="1.1" id="Layer_1" xmlns="http://www.w3.org/2000/svg" xmlns:xlink="http://www.w3.org/1999/xlink" x="0px" y="0px"
	 viewBox="0 0 512.001 512.001" style="enable-background:new 0 0 512.001 512.001;" xml:space="preserve">
<path style="fill:#B7BBBC;" d="M495.944,324.928c0,8.729-7.077,15.801-15.805,15.801H368.62c-8.73,0-15.803-7.073-15.803-15.801
	v-35.993c0-8.729,7.074-15.802,15.803-15.802h111.519c8.728,0,15.805,7.074,15.805,15.802L495.944,324.928L495.944,324.928z"/>
<path style="fill:#F9D18A;" d="M480.139,340.731H368.62c-0.635,0-1.257-0.047-1.874-0.12v156.117c0,4.859,3.942,8.798,8.802,8.798
	h97.896c4.86,0,8.8-3.939,8.8-8.798V340.575C481.553,340.667,480.855,340.731,480.139,340.731z"/>
<path style="fill:#F2B34E;" d="M398.606,496.728V340.731h-29.755c-0.715,0-1.415-0.064-2.106-0.154v156.151
	c0,4.859,3.941,8.798,8.8,8.798h31.86C402.547,505.525,398.606,501.587,398.606,496.728z"/>
<path style="fill:#585A60;" d="M504.031,260.287V99.664c0-10.974-8.901-19.875-19.879-19.875c-10.979,0-19.877,8.902-19.877,19.875
	V54.686c0-10.977-8.899-19.872-19.879-19.872c-10.979,0-19.877,8.895-19.877,19.872V28.341c0-10.976-8.901-19.874-19.879-19.874
	c-10.978,0-19.877,8.899-19.877,19.874v20.07c0-10.976-8.901-19.874-19.879-19.874c-10.978,0-19.877,8.899-19.877,19.874v133.412
	l-37.282-28.713c-10.831-8.946-26.872-7.427-35.825,3.399c-8.955,10.829-7.434,26.866,3.397,35.815l69.71,55.515v9.494
	c0,8.727,7.075,15.801,15.805,15.801l0,0h52.13h73.814C494.913,273.133,501.798,267.718,504.031,260.287z"/>
<path style="fill:#B7BBBC;" d="M17.089,324.928c0,8.729,7.077,15.801,15.805,15.801h111.518c8.729,0,15.804-7.073,15.804-15.801
	v-35.993c0-8.729-7.075-15.802-15.804-15.802H32.894c-8.729,0-15.805,7.074-15.805,15.802
	C17.089,288.935,17.089,324.928,17.089,324.928z"/>
<path style="fill:#F9D18A;" d="M32.894,340.731h111.518c0.636,0,1.258-0.047,1.873-0.12v156.117c0,4.859-3.94,8.798-8.8,8.798
	H39.588c-4.859,0-8.8-3.939-8.8-8.798V340.575C31.479,340.667,32.179,340.731,32.894,340.731z"/>
<path style="fill:#989DA0;" d="M48.95,324.928v-35.993c0-8.729,7.076-15.802,15.805-15.802h-31.86
	c-8.729,0-15.805,7.074-15.805,15.802v35.993c0,8.729,7.077,15.801,15.805,15.801h31.861
	C56.027,340.731,48.95,333.657,48.95,324.928z"/>
<path style="fill:#F2B34E;" d="M62.649,496.728V340.731H32.894c-0.715,0-1.415-0.064-2.106-0.154v156.151
	c0,4.859,3.941,8.798,8.8,8.798H71.45C66.59,505.525,62.649,501.587,62.649,496.728z"/>
<path style="fill:#989DA0;" d="M384.677,324.928v-35.993c0-8.729,7.077-15.802,15.805-15.802h-31.86
	c-8.729,0-15.805,7.074-15.805,15.802v35.993c0,8.729,7.076,15.801,15.805,15.801h31.86
	C391.754,340.731,384.677,333.657,384.677,324.928z"/>
<path style="fill:#585A60;" d="M9,260.287V99.664c0-10.974,8.901-19.875,19.879-19.875s19.877,8.902,19.877,19.875V54.686
	c0-10.977,8.899-19.872,19.879-19.872c10.978,0,19.877,8.895,19.877,19.872V28.341c0-10.976,8.901-19.874,19.879-19.874
	s19.877,8.899,19.877,19.874v20.07c0-10.976,8.901-19.874,19.879-19.874s19.877,8.899,19.877,19.874v133.412l37.282-28.713
	c10.831-8.946,26.872-7.427,35.825,3.399c8.955,10.829,7.434,26.866-3.397,35.815l-69.709,55.515v9.494
	c0,8.727-7.076,15.801-15.805,15.801l0,0h-52.13H26.276C18.119,273.133,11.234,267.718,9,260.287z"/>
<g>
	<path style="fill:#231F20;" d="M483.638,71.322c-4.465,0-8.681,1.075-12.406,2.979V53.69c0-15.077-12.269-27.343-27.35-27.343
		c-4.465,0-8.681,1.075-12.406,2.978v-1.98C431.474,12.268,419.205,0,404.124,0c-13.675,0-25.037,10.088-27.036,23.211
		c-3.802-2.006-8.131-3.142-12.721-3.142c-15.08,0-27.348,12.267-27.348,27.345v118.229l-25.157-19.375
		c-5.871-4.809-13.269-7.455-20.852-7.455c-9.857,0-19.109,4.351-25.383,11.938c-5.603,6.776-8.233,15.327-7.402,24.079
		c0.83,8.752,5.019,16.657,11.797,22.256c0.035,0.029,0.07,0.058,0.105,0.086l66.892,53.272v5.893
		c0,8.349,4.422,15.682,11.045,19.789c-2.051,3.465-3.233,7.504-3.233,11.815v35.993c0,9.511,5.738,17.702,13.93,21.308v150.492
		c0,8.971,7.299,16.268,16.272,16.268h97.896c8.972,0,16.27-7.297,16.27-16.268V396.95c0-4.127-3.344-7.471-7.471-7.471
		c-4.127,0-7.471,3.344-7.471,7.471v98.783c0,0.731-0.597,1.327-1.329,1.327h-97.896c-0.733,0-1.331-0.596-1.331-1.327V347.205
		h100.556v24.842c0,4.127,3.344,7.471,7.471,7.471c4.127,0,7.471-3.344,7.471-7.471v-26.911c8.07-3.658,13.7-11.783,13.7-21.203
		V287.94c0-4.43-1.245-8.574-3.404-12.104c5.247-3.213,9.335-8.271,11.175-14.394c0.209-0.697,0.316-1.422,0.316-2.151V98.668
		C510.988,83.589,498.718,71.322,483.638,71.322z M279.491,185.529c-3.672-3.054-5.941-7.352-6.392-12.11
		c-0.453-4.778,0.982-9.446,4.041-13.145c3.426-4.143,8.482-6.52,13.87-6.52c4.163,0,8.226,1.463,11.44,4.119
		c0.065,0.055,0.132,0.107,0.199,0.159l37.282,28.713c2.254,1.735,5.301,2.041,7.857,0.784c2.554-1.257,4.173-3.856,4.173-6.703
		V47.415c0-6.839,5.565-12.403,12.406-12.403c6.842,0,12.408,5.564,12.408,12.403v94.851c0,4.127,3.344,7.471,7.471,7.471
		c4.126,0,7.471-3.344,7.471-7.471V47.415V32.093v-4.747c0-6.839,5.565-12.403,12.406-12.403c6.842,0,12.409,5.564,12.409,12.403
		v17.038v9.307v88.575c0,4.127,3.344,7.471,7.471,7.471c4.127,0,7.471-3.344,7.471-7.471V53.69c0-6.838,5.565-12.402,12.406-12.402
		c6.842,0,12.409,5.563,12.409,12.402v27.562v17.415v43.598c0,4.127,3.344,7.471,7.471,7.471c4.127,0,7.471-3.344,7.471-7.471
		V98.668c0-6.84,5.565-12.404,12.406-12.404c6.842,0,12.408,5.564,12.408,12.404V258.04c-1.594,3.946-5.499,6.626-9.806,6.626
		h-6.616h-111.52h-7.809c-4.595,0-8.334-3.737-8.334-8.33v-9.494c0-2.275-1.037-4.427-2.817-5.844L279.491,185.529z
		 M368.105,332.264c-0.203,0-0.402-0.017-0.602-0.03c-0.127-0.011-0.252-0.021-0.394-0.038c-0.01-0.001-0.02-0.001-0.03-0.002
		c-4.111-0.508-7.306-4.015-7.306-8.261V287.94c0-4.594,3.738-8.331,8.332-8.331h111.519c4.595,0,8.334,3.737,8.334,8.331v35.993
		c0,4.187-3.109,7.652-7.139,8.235c-0.023,0.003-0.048,0.003-0.071,0.006c-0.21,0.028-0.392,0.047-0.563,0.063
		c-0.185,0.013-0.372,0.028-0.561,0.028h-111.52V332.264z"/>
	<path style="fill:#231F20;" d="M200.141,146.267l-25.158,19.375V95.129c0-4.127-3.345-7.471-7.471-7.471s-7.471,3.344-7.471,7.471
		v85.697c0,2.847,1.618,5.447,4.173,6.703c2.554,1.258,5.602,0.952,7.856-0.784l37.281-28.713c0.068-0.053,0.133-0.105,0.199-0.159
		c7.64-6.31,18.996-5.235,25.311,2.4c3.059,3.7,4.493,8.367,4.04,13.146c-0.451,4.757-2.72,9.057-6.393,12.111l-69.651,55.468
		c-1.78,1.417-2.817,3.569-2.817,5.844v9.494c0,4.593-3.738,8.33-8.334,8.33h-7.809H32.379h-6.617c-4.309,0-8.214-2.681-9.807-6.625
		V98.668c0-6.839,5.566-12.404,12.409-12.404c6.841,0,12.406,5.565,12.406,12.404v43.598c0,4.127,3.345,7.471,7.471,7.471
		s7.471-3.344,7.471-7.471V98.668V81.252V53.69c0-6.838,5.566-12.402,12.408-12.402c6.841,0,12.407,5.563,12.407,12.402v88.575
		c0,4.127,3.345,7.471,7.471,7.471c4.126,0,7.471-3.344,7.471-7.471V53.69v-9.308V27.345c0-6.839,5.566-12.403,12.408-12.403
		c6.841,0,12.407,5.564,12.407,12.403v4.747v15.322v94.851c0,4.127,3.345,7.471,7.471,7.471c4.126,0,7.471-3.344,7.471-7.471V47.415
		c0-6.839,5.566-12.403,12.408-12.403c6.84,0,12.405,5.564,12.405,12.403v22.812c0,4.127,3.345,7.471,7.471,7.471
		s7.471-3.344,7.471-7.471V47.415c0-15.078-12.268-27.345-27.347-27.345c-4.589,0-8.918,1.137-12.72,3.142
		C132.916,10.088,121.554,0,107.879,0c-15.081,0-27.35,12.268-27.35,27.345v1.981c-3.726-1.905-7.944-2.979-12.407-2.979
		c-15.081,0-27.35,12.267-27.35,27.343V74.3c-3.725-1.905-7.943-2.979-12.406-2.979c-15.081,0-27.35,12.267-27.35,27.346V259.29
		c0,0.729,0.107,1.452,0.316,2.15c1.841,6.124,5.927,11.183,11.176,14.396c-2.158,3.528-3.404,7.673-3.404,12.103v35.993
		c0,9.42,5.63,17.544,13.699,21.203v150.597c0,8.971,7.298,16.268,16.27,16.268h97.897c8.972,0,16.27-7.297,16.27-16.268V345.241
		c8.194-3.606,13.932-11.798,13.932-21.309v-35.993c0-4.311-1.182-8.349-3.234-11.815c6.623-4.107,11.045-11.439,11.045-19.789
		v-5.893l66.892-53.272c0.035-0.028,0.07-0.057,0.105-0.086c6.777-5.599,10.966-13.504,11.797-22.256
		c0.831-8.752-1.798-17.303-7.401-24.08C234.844,136.807,214.131,134.807,200.141,146.267z M143.897,279.608
		c4.595,0,8.333,3.737,8.333,8.331v35.993c0,4.248-3.198,7.757-7.313,8.262c-0.009,0.001-0.019,0.001-0.028,0.002
		c-0.138,0.017-0.261,0.026-0.385,0.036c-0.201,0.015-0.401,0.031-0.607,0.031H32.379c-0.188,0-0.373-0.016-0.558-0.028
		c-0.173-0.015-0.359-0.034-0.567-0.063c-0.023-0.003-0.046-0.002-0.07-0.006c-4.03-0.582-7.14-4.047-7.14-8.235v-35.993
		c0-4.594,3.738-8.331,8.334-8.331L143.897,279.608L143.897,279.608z M138.299,495.732c0,0.731-0.597,1.327-1.329,1.327H39.073
		c-0.732,0-1.329-0.596-1.329-1.327V347.205h100.555V495.732z"/>
</g>
<g>
</g>
<g>
</g>
<g>
</g>
<g>
</g>
<g>
</g>
<g>
</g>
<g>
</g>
<g>
</g>
<g>
</g>
<g>
</g>
<g>
</g>
<g>
</g>
<g>
</g>
<g>
</g>
<g>
</g>
</svg>
