<svg height="510pt" viewBox="0 -8 510.12118 510" width="510pt" xmlns="http://www.w3.org/2000/svg"><path d="m494.34375 150.125c0 68.253906-55.332031 123.585938-123.585938 123.585938-68.253906 0-123.585937-55.332032-123.585937-123.585938s55.332031-123.585938 123.585937-123.585938c68.253907 0 123.585938 55.332032 123.585938 123.585938zm0 0" fill="#bdc3c7"/><path d="m471.214844 189.230469c7.300781-25.558594 7.300781-52.652344 0-78.210938l13.507812-8.121093c-8.871094-21.476563-23.617187-40.019532-42.550781-53.496094-17.808594-12.738282-38.734375-20.421875-60.554687-22.246094-1.765626-.175781-3.621094-.351562-5.386719-.441406-1.765625-.085938-3.617188-.175782-5.472657-.175782-1.851562 0-3.617187.089844-5.472656.175782-1.851562.089844-3.617187.265625-5.382812.441406-45.8125 4.019531-85.574219 33.226562-103.109375 75.742188l13.507812 8.121093c-7.296875 25.558594-7.296875 52.652344 0 78.210938l-13.683593 8.210937c3.433593 8.433594 7.851562 16.433594 13.152343 23.835938l10.683594-6.359375c13.101563 26.082031 36.078125 45.847656 63.824219 54.910156v1.058594c6.90625 1.511719 13.941406 2.398437 21.007812 2.648437 1.855469.089844 3.621094.175782 5.472656.175782 1.855469 0 3.621094-.085938 5.472657-.175782 7.070312-.25 14.101562-1.136718 21.011719-2.648437v-1.058594c27.742187-9.0625 50.71875-28.828125 63.824218-54.910156l10.679688 6.359375c5.304687-7.402344 9.71875-15.402344 13.152344-23.835938zm-201.179688-110.078125c17.746094-25.097656 44.21875-42.664063 74.242188-49.257813v.527344c-27.765625 9.078125-50.746094 28.878906-63.824219 54.996094zm127.207032-49.257813c30.019531 6.59375 56.496093 24.160157 74.238281 49.257813l-10.414063 6.265625c-13.082031-26.117188-36.0625-45.917969-63.824218-54.996094zm0 0" fill="#bdc3c7"/><path d="m476.691406 150.125c0-68.253906-47.429687-123.585938-105.933594-123.585938-58.503906 0-105.929687 55.332032-105.929687 123.585938s47.425781 123.585938 105.929687 123.585938c58.503907 0 105.933594-55.332032 105.933594-123.585938zm0 0" fill="#e6e7e8"/><g fill="#a5a5a4"><path d="m494.34375 414.953125c-3.359375.019531-6.441406-1.875-7.945312-4.882813l-8.382813-16.773437c-2.136719-4.351563-.359375-9.613281 3.980469-11.777344 4.335937-2.167969 9.609375-.433593 11.808594 3.886719l8.398437 16.773438c1.363281 2.730468 1.21875 5.972656-.378906 8.570312-1.597657 2.601562-4.425781 4.1875-7.480469 4.203125zm0 0"/><path d="m459.035156 432.609375c-3.367187.011719-6.449218-1.886719-7.945312-4.902344l-8.554688-17.210937c-2.171875-4.367188-.394531-9.667969 3.972656-11.839844 4.367188-2.171875 9.667969-.394531 11.839844 3.972656l8.5625 17.222656c1.355469 2.730469 1.207032 5.96875-.394531 8.566407-1.601563 2.59375-4.429687 4.179687-7.480469 4.191406zm0 0"/><path d="m335.449219 467.917969c-3.363281.019531-6.441407-1.875-7.945313-4.882813l-6.886718-13.769531c-1.4375-2.824219-1.253907-6.203125.488281-8.855469 1.738281-2.648437 4.769531-4.160156 7.933593-3.960937 3.160157.199219 5.976563 2.078125 7.371094 4.925781l6.894532 13.769531c1.363281 2.730469 1.222656 5.972657-.378907 8.570313-1.597656 2.601562-4.425781 4.191406-7.476562 4.203125zm0 0"/><path d="m291.308594 490.339844c-3.359375.019531-6.441406-1.875-7.941406-4.882813l-6.789063-13.59375c-1.496094-2.832031-1.339844-6.25.40625-8.933593 1.746094-2.683594 4.808594-4.210938 8-3.992188 3.195313.21875 6.019531 2.148438 7.386719 5.042969l6.785156 13.59375c1.359375 2.730469 1.21875 5.964843-.378906 8.5625-1.597656 2.597656-4.417969 4.183593-7.46875 4.203125zm0 0"/><path d="m255.117188 494.402344c-3.359376.019531-6.4375-1.863282-7.945313-4.867188l-25.539063-44.136718c-2.191406-4.355469-.441406-9.664063 3.917969-11.859376 4.355469-2.195312 9.664063-.441406 11.859375 3.914063l25.539063 44.140625c1.378906 2.726562 1.246093 5.976562-.347657 8.585938-1.597656 2.605468-4.425781 4.203124-7.484374 4.222656zm0 0"/></g><path d="m450.207031 406.65625c-88.277343 26.480469-97.105469 17.652344-141.242187 52.964844-41.488282 33.191406-98.515625 4.058594-90.570313-36.28125v-.089844c.503907-2.660156 1.273438-5.261719 2.296875-7.769531l289.011719-81.917969c.042969.03125.066406.082031.066406.132812 0 .050782-.023437.101563-.066406.132813 2.472656 23.039063-4.675781 56.40625-59.496094 72.828125zm0 0" fill="#bdc3c7"/><path d="m509.703125 333.5625c.042969.03125.066406.082031.066406.132812 0 .050782-.023437.101563-.066406.132813-2.292969 20.832031-15.710937 44.753906-59.496094 57.90625-88.277343 26.484375-97.105469 17.65625-141.242187 52.96875-36.105469 28.863281-84.039063 10.503906-90.570313-21.363281v-.089844c.503907-2.660156 1.273438-5.261719 2.296875-7.769531zm0 0" fill="#e6e7e8"/><path d="m509.351562 340.800781c0 .089844.089844.089844 0 .175781-.679687 4.78125-2.839843 9.226563-6.179687 12.710938-8.828125 8.828125-79.449219 44.140625-132.414063 44.140625-52.964843 0-52.964843 35.308594-88.273437 35.308594-21.804687-.261719-43.144531-6.359375-61.792969-17.65625-5.460937-11.199219-9.179687-23.164063-11.035156-35.484375-.902344-5.917969-.140625-11.972656 2.207031-17.480469l61.792969-61.792969c35.308594-8.828125 26.480469 26.484375 79.445312 17.65625 52.96875-8.828125 88.277344 8.828125 105.933594 8.828125s35.308594-17.65625 44.136719-8.828125c5.476563 6.085938 7.765625 14.390625 6.179687 22.421875zm0 0" fill="#3b97d3"/><path d="m509.351562 340.800781c0 .089844.089844.089844 0 .175781-.679687 4.78125-2.839843 9.226563-6.179687 12.710938-8.828125 8.828125-79.449219 44.140625-132.414063 44.140625-52.964843 0-52.964843 35.308594-88.273437 35.308594-21.804687-.261719-43.144531-6.359375-61.792969-17.65625-5.460937-11.199219-9.179687-23.164063-11.035156-35.484375-.90625-6.09375-.140625-12.316406 2.207031-18.007813l61.792969-51.554687c35.308594-8.828125 26.480469 26.484375 79.445312 17.65625 52.96875-8.828125 88.277344 8.828125 105.933594 8.828125s35.308594-17.65625 44.136719-8.828125c3.339844 3.484375 5.5 7.929687 6.179687 12.710937zm0 0" fill="#2980ba"/><path d="m26.570312 169.546875c-5.421874-11.441406-8.453124-23.867187-8.914062-36.519531 0-26.484375-17.65625-23.484375-17.65625-23.484375v-108.929688s61.792969-8.828125 88.277344 44.136719c10.679687 21.328125 22.4375 42.097656 35.21875 62.234375l.089844 69.625-26.484376 17.097656zm0 0" fill="#fdd7ad"/><path d="m264.828125 150.125c-.015625 13.226562 1.828125 26.390625 5.472656 39.105469l-13.683593 8.210937c-3.011719-7.242187-5.34375-14.75-6.972657-22.421875-.792969-3.972656-1.414062-8.035156-1.855469-12.09375-.425781-4.078125-.632812-8.171875-.617187-12.269531 0-7.433594.679687-14.851562 2.03125-22.160156.351563-2.117188.792969-4.234375 1.324219-6.265625.96875-4.148438 2.117187-8.121094 3.441406-12.09375.257812-.539063.464844-1.101563.617188-1.679688.707031-1.851562 1.414062-3.707031 2.207031-5.558593l13.507812 8.121093c-3.644531 12.714844-5.488281 25.878907-5.472656 39.105469zm0 0" fill="#2c3e50"/><path d="m249.644531 175.019531c1.628907 7.671875 3.960938 15.179688 6.972657 22.421875l-.175782.085938c-3.019531-7.253906-5.296875-14.792969-6.796875-22.507813zm0 0" fill="#35495e"/><path d="m291.308594 128.675781v42.902344c.042968 3.125-1.613282 6.03125-4.324219 7.589844l-16.683594 10.0625c-7.296875-25.558594-7.296875-52.652344 0-78.210938l16.773438 10.0625c2.660156 1.597657 4.273437 4.488281 4.234375 7.59375zm0 0" fill="#35495e"/><path d="m494.34375 150.65625c.019531 4.097656-.1875 8.191406-.617188 12.269531-.441406 4.058594-1.058593 8.121094-1.851562 12.09375-1.628906 7.671875-3.964844 15.179688-6.976562 22.421875l-13.683594-8.210937c7.300781-25.558594 7.300781-52.652344 0-78.210938l13.507812-8.121093c1.835938 4.339843 3.398438 8.792968 4.679688 13.328124.617187 1.941407 1.148437 4.0625 1.589844 6.089844.441406 2.03125.96875 4.0625 1.324218 6.179688.527344 2.828125.96875 5.652344 1.234375 8.5625l.265625 2.386718c.175782 1.585938.261719 3.265626.351563 4.855469.089843 2.117188.175781 4.234375.175781 6.355469zm0 0" fill="#2c3e50"/><path d="m471.214844 111.019531c7.300781 25.558594 7.300781 52.652344 0 78.210938l-16.683594-10.0625c-2.710938-1.558594-4.363281-4.464844-4.324219-7.589844v-42.902344c-.035156-3.105469 1.578125-5.996093 4.238281-7.59375zm0 0" fill="#35495e"/><path d="m484.898438 197.441406c3.011718-7.242187 5.347656-14.75 6.976562-22.421875-1.5 7.714844-3.777344 15.253907-6.800781 22.507813zm0 0" fill="#35495e"/><path d="m414.898438 128.675781v42.902344c.039062 3.125-1.617188 6.03125-4.328126 7.589844l-35.308593 21.1875c-2.769531 1.675781-6.238281 1.675781-9.003907 0l-35.3125-21.1875c-2.710937-1.558594-4.363281-4.464844-4.324218-7.589844v-42.902344c-.039063-3.128906 1.613281-6.03125 4.324218-7.59375l35.3125-21.1875c2.765626-1.675781 6.234376-1.675781 9.003907 0l35.308593 21.1875c2.710938 1.5625 4.367188 4.464844 4.328126 7.59375zm0 0" fill="#35495e"/><path d="m471.480469 79.152344-10.414063 6.265625c-13.082031-26.117188-36.0625-45.917969-63.824218-54.996094v-.527344c30.019531 6.59375 56.496093 24.160157 74.238281 49.257813zm0 0" fill="#2c3e50"/><path d="m461.066406 85.417969-15.183594 9.003906c-2.769531 1.679687-6.238281 1.679687-9.003906 0l-35.3125-21.183594c-2.710937-1.5625-4.363281-4.464843-4.324218-7.59375v-35.222656c27.761718 9.078125 50.742187 28.878906 63.824218 54.996094zm0 0" fill="#35495e"/><path d="m344.277344 29.894531v.527344c-27.765625 9.078125-50.746094 28.878906-63.824219 54.996094l-10.417969-6.265625c17.746094-25.097656 44.21875-42.664063 74.242188-49.257813zm0 0" fill="#2c3e50"/><path d="m344.277344 30.421875v35.222656c.039062 3.128907-1.617188 6.03125-4.328125 7.59375l-35.308594 21.183594c-2.769531 1.679687-6.238281 1.679687-9.003906 0l-15.183594-9.003906c13.078125-26.117188 36.058594-45.917969 63.824219-54.996094zm0 0" fill="#35495e"/><path d="m471.746094 221.277344c-17.769532 25.257812-44.347656 42.957031-74.503906 49.609375v-1.058594c27.742187-9.0625 50.71875-28.828125 63.824218-54.910156zm0 0" fill="#2c3e50"/><path d="m472.011719 221.453125c-17.785157 25.429687-44.46875 43.261719-74.769531 49.964844v-.53125c30.15625-6.652344 56.734374-24.351563 74.503906-49.609375zm0 0" fill="#35495e"/><path d="m397.242188 269.828125v-35.222656c-.039063-3.128907 1.613281-6.03125 4.324218-7.59375l35.3125-21.183594c2.765625-1.679687 6.234375-1.679687 9.003906 0l15.183594 9.089844c-13.105468 26.082031-36.082031 45.847656-63.824218 54.910156zm0 0" fill="#35495e"/><path d="m344.277344 269.828125v1.058594c-30.160156-6.652344-56.738282-24.351563-74.507813-49.609375l10.683594-6.359375c13.101563 26.082031 36.078125 45.847656 63.824219 54.910156zm0 0" fill="#2c3e50"/><path d="m344.277344 234.605469v35.222656c-27.746094-9.0625-50.722656-28.828125-63.824219-54.910156l19.683594-11.828125 39.8125 23.921875c2.710937 1.5625 4.367187 4.464843 4.328125 7.59375zm0 0" fill="#35495e"/><path d="m344.277344 270.886719v.53125c-30.304688-6.703125-56.984375-24.535157-74.769532-49.964844l.261719-.175781c17.769531 25.257812 44.347657 42.957031 74.507813 49.609375zm0 0" fill="#35495e"/><path d="m335.449219 353.160156c-3.058594-.003906-5.898438-1.585937-7.507813-4.1875-1.605468-2.601562-1.753906-5.851562-.386718-8.585937 4.679687-9.332031 2.78125-14.328125 1.765624-16.050781-2.507812-4.179688-1.15625-9.601563 3.023438-12.113282 4.183594-2.511718 9.605469-1.15625 12.117188 3.023438 5.566406 10.414062 5.152343 23.007812-1.085938 33.03125-1.5 3.003906-4.570312 4.894531-7.925781 4.882812zm0 0" fill="#e6e7e8"/><path d="m361.929688 353.160156c-3.058594-.003906-5.894532-1.585937-7.503907-4.1875-1.605469-2.601562-1.753906-5.851562-.386719-8.585937 5.632813-11.253907 1.582032-16.347657 1.414063-16.5625-3.074219-3.65625-2.765625-9.070313.695313-12.355469 3.382812-3.226562 8.714843-3.175781 12.03125.113281 4.953124 4.953125 10.867187 18.238281 1.660156 36.667969-1.488282 3.007812-4.554688 4.910156-7.910156 4.910156zm0 0" fill="#e6e7e8"/><path d="m388.414062 353.160156c-3.058593-.003906-5.898437-1.585937-7.503906-4.1875-1.609375-2.601562-1.753906-5.851562-.386718-8.585937 5.628906-11.253907 1.578124-16.347657 1.410156-16.5625-3.070313-3.65625-2.765625-9.070313.699218-12.355469 3.378907-3.226562 8.710938-3.175781 12.03125.113281 4.953126 4.953125 10.867188 18.238281 1.660157 36.667969-1.492188 3.007812-4.554688 4.910156-7.910157 4.910156zm0 0" fill="#e6e7e8"/><path d="m280.980469 344.597656c-2.066407 3.3125-4.527344 6.367188-7.324219 9.089844-26.484375 26.484375-61.792969 8.828125-61.792969 8.828125-26.484375-61.792969-79.449219-79.445313-132.414062-105.929687-28.714844-15.640626-49.792969-42.332032-58.351563-73.886719l-.53125-1.855469c-.796875-2.695312-.238281-5.609375 1.496094-7.820312 1.738281-2.207032 4.4375-3.441407 7.246094-3.300782 21.257812.578125 42.070312-6.152344 58.96875-19.066406 2.734375-2.03125 5.207031-3.972656 7.503906-6.003906 8.503906-6.644532 15.894531-14.597656 21.890625-23.570313 3.191406-4.265625 5.226563-9.28125 5.914063-14.566406 27.480468 22.703125 51.296874 49.5 70.621093 79.449219 26.484375 44.136718 79.449219 123.585937 79.449219 123.585937 5.632812 3.664063 9.570312 9.421875 10.945312 16s.074219 13.433594-3.621093 19.046875zm0 0" fill="#cc4b4c"/><path d="m280.980469 344.597656c-2.128907-6.046875-6.074219-11.289062-11.296875-15.007812 0 0-55.613282-83.421875-83.421875-129.765625-18.902344-29.449219-42.011719-55.976563-68.589844-78.742188 3.191406-4.265625 5.226563-9.28125 5.914063-14.566406 27.480468 22.703125 51.296874 49.5 70.621093 79.449219 26.484375 44.136718 79.449219 123.585937 79.449219 123.585937 5.632812 3.664063 9.570312 9.421875 10.945312 16s.074219 13.433594-3.621093 19.046875zm0 0" fill="#d75e72"/></svg>